<?xml version="1.0" encoding="UTF-8" standalone="no"?><!DOCTYPE svg PUBLIC "-//W3C//DTD SVG 1.1//EN" "http://www.w3.org/Graphics/SVG/1.1/DTD/svg11.dtd"><svg width="100%" height="100%" viewBox="0 0 249 256" version="1.1" xmlns="http://www.w3.org/2000/svg" xmlns:xlink="http://www.w3.org/1999/xlink" xml:space="preserve" xmlns:serif="http://www.serif.com/" style="fill-rule:evenodd;clip-rule:evenodd;stroke-linejoin:round;stroke-miterlimit:2;"><rect id="Moon" x="0.007" y="0" width="248" height="256" style="fill:none;"/><clipPath id="_clip1"><rect x="0.007" y="0" width="248" height="256"/></clipPath><g clip-path="url(#_clip1)"><g id="Moon1" serif:id="Moon"><path d="M59.055,245.551l-0,-11.636l23.619,-0l-0,11.636l70.857,0l-0,-11.636l23.619,-0l0,11.636l-23.619,0l-0,11.636l-70.857,0l-0,-11.636l-23.619,0Zm118.095,-23.273l23.619,0l0,11.637l-23.619,-0l0,-11.637Zm-141.714,0l23.619,0l-0,11.637l-23.619,-0l-0,-11.637Zm-11.81,-11.636l11.81,0l-0,11.636l-11.81,0l0,-11.636Zm188.953,-23.273l11.809,0l0,23.273l-11.809,0l-0,11.636l-11.81,0l0,-11.636l11.81,0l-0,-23.273Zm-200.762,0l11.809,0l0,23.273l-11.809,0l-0,-23.273Zm23.619,11.637l-0,-11.637l-11.81,0l0,-11.636l11.81,-0l-0,11.636l23.619,0l-0,11.637l35.428,-0l0,-11.637l35.429,0l-0,11.637l-35.429,-0l0,11.636l-35.428,0l-0,-11.636l-23.619,-0Zm-11.81,-34.909l0,11.636l-11.809,-0l-0,11.636l-11.81,0l0,-23.272l23.619,-0Zm200.762,-93.091l11.81,-0l-0,23.272l11.809,0l0,69.819l-11.809,-0l-0,23.272l-11.81,0l0,-23.272l11.81,-0l-0,-69.819l-11.81,0l0,-23.272l-11.809,-0l-0,-23.273l11.809,-0l0,23.273Zm-82.667,104.727l0,-23.273l11.81,0l-0,23.273l-11.81,-0l0,11.636l-11.809,0l-0,-11.636l11.809,-0Zm11.81,-46.546l11.81,0l-0,23.273l-11.81,0l-0,-23.273Zm11.81,-46.545l11.809,0l0,46.545l-11.809,0l-0,-46.545Zm-11.81,-23.273l11.81,0l-0,23.273l-11.81,0l-0,-23.273Zm-11.81,-11.636l11.81,-0l-0,11.636l-11.81,0l0,-11.636Zm59.048,-11.636l11.81,-0l-0,11.636l-11.81,-0l0,-11.636Zm-70.857,-0l11.809,-0l0,11.636l-11.809,-0l-0,-11.636Zm-11.81,-11.637l11.81,0l-0,11.637l-11.81,-0l0,-11.637Zm59.048,0l23.619,0l0,11.637l-23.619,-0l0,-11.637Zm-82.667,-11.636l23.619,-0l0,11.636l-23.619,0l0,-11.636Zm-11.809,-0l-0,-11.637l70.857,0l-0,11.637l23.619,-0l0,11.636l-23.619,0l-0,-11.636l-70.857,-0Z" style="fill:#ffbf00;"/><path d="M212.579,71.006l-0,-23.273l-47.238,-0c-0,-0 35.428,-0 35.428,-0l0,-11.636l-23.619,-0l0,-11.637l-23.619,0l-0,-11.636l-35.429,-0l0,11.636l11.81,0l-0,11.637l11.809,-0l0,11.636l11.81,-0l-0,11.636l11.81,0l-0,23.273l11.809,0l0,46.546l-11.809,-0l-0,23.272l-11.81,0l-0,23.273l-11.81,-0l0,11.636l-11.809,0l-0,11.637l-35.429,-0l0,11.636l-35.428,0l-0,23.273l23.619,-0l-0,11.636l70.857,0l-0,-11.636l23.619,-0l0,-11.637l23.619,0l0,-11.636l11.81,0l-0,-23.273l11.809,0l0,-23.272l11.81,-0l-0,-69.819l-11.81,0l0,-23.272l-11.809,-0Zm-153.524,128l-23.619,-0l-0,23.272l23.619,0l-0,-23.272Zm-23.619,-11.637l-11.81,0l0,23.273l11.81,0l-0,-23.273Zm-11.81,-11.636l-11.809,-0l-0,11.636l11.809,0l0,-11.636Z" style="fill:#fcdb3b;"/></g></g></svg>