<?xml version="1.0" encoding="UTF-8" standalone="no"?><!DOCTYPE svg PUBLIC "-//W3C//DTD SVG 1.1//EN" "http://www.w3.org/Graphics/SVG/1.1/DTD/svg11.dtd"><svg width="100%" height="100%" viewBox="0 0 140 256" version="1.1" xmlns="http://www.w3.org/2000/svg" xmlns:xlink="http://www.w3.org/1999/xlink" xml:space="preserve" xmlns:serif="http://www.serif.com/" style="fill-rule:evenodd;clip-rule:evenodd;stroke-linejoin:round;stroke-miterlimit:2;"><rect id="Raindrops" x="-0" y="0" width="140" height="256" style="fill:none;"/><clipPath id="_clip1"><rect x="-0" y="0" width="140" height="256"/></clipPath><g clip-path="url(#_clip1)"><g id="Raindrops1" serif:id="Raindrops"><g><rect x="36.921" y="93.918" width="11.667" height="11.636" style="fill:#55c6e1;"/><rect x="25.255" y="105.554" width="11.667" height="11.636" style="fill:#55c6e1;"/><rect x="25.255" y="117.19" width="11.667" height="11.636" style="fill:#96f1cf;"/><rect x="13.588" y="128.827" width="11.667" height="23.273" style="fill:#96f1cf;"/><rect x="1.921" y="152.099" width="11.667" height="23.273" style="fill:#fff;"/></g><g><rect x="106.921" y="0.827" width="11.667" height="11.636" style="fill:#55c6e1;"/><rect x="95.255" y="12.463" width="11.667" height="11.636" style="fill:#55c6e1;"/><rect x="95.255" y="24.099" width="11.667" height="11.636" style="fill:#96f1cf;"/><rect x="83.588" y="35.736" width="11.667" height="23.273" style="fill:#96f1cf;"/><rect x="71.921" y="59.009" width="11.667" height="23.273" style="fill:#fff;"/></g><g><rect x="60.255" y="175.372" width="11.667" height="11.636" style="fill:#55c6e1;"/><rect x="48.588" y="187.009" width="11.667" height="11.636" style="fill:#55c6e1;"/><rect x="48.588" y="198.645" width="11.667" height="11.636" style="fill:#96f1cf;"/><rect x="36.921" y="210.281" width="11.667" height="23.273" style="fill:#96f1cf;"/><rect x="25.255" y="233.554" width="11.667" height="23.273" style="fill:#fff;"/></g><g><rect x="130.255" y="82.281" width="11.667" height="11.636" style="fill:#55c6e1;"/><rect x="118.588" y="93.918" width="11.667" height="11.636" style="fill:#55c6e1;"/><rect x="118.588" y="105.554" width="11.667" height="11.636" style="fill:#96f1cf;"/><rect x="106.921" y="117.19" width="11.667" height="23.273" style="fill:#96f1cf;"/><rect x="95.255" y="140.463" width="11.667" height="23.273" style="fill:#fff;"/></g></g></g></svg>