<?xml version="1.0" encoding="UTF-8" standalone="no"?><!DOCTYPE svg PUBLIC "-//W3C//DTD SVG 1.1//EN" "http://www.w3.org/Graphics/SVG/1.1/DTD/svg11.dtd"><svg width="100%" height="100%" viewBox="0 0 165 189" version="1.1" xmlns="http://www.w3.org/2000/svg" xmlns:xlink="http://www.w3.org/1999/xlink" xml:space="preserve" xmlns:serif="http://www.serif.com/" style="fill-rule:evenodd;clip-rule:evenodd;stroke-linejoin:round;stroke-miterlimit:2;"><rect id="Skull" x="0" y="0" width="165" height="189" style="fill:none;"/><clipPath id="_clip1"><rect x="0" y="0" width="165" height="189"/></clipPath><g clip-path="url(#_clip1)"><g id="Skull1" serif:id="Skull"><path d="M117.857,23.625l0,-11.812l-70.714,-0l-0,11.812l-23.572,0l0,47.25l-23.571,0l-0,47.25l23.571,0l0,23.625l23.572,0l-0,35.438l70.714,-0l0,-35.438l23.572,0l-0,-23.625l23.571,0l-0,-47.25l-23.571,0l-0,-47.25l-23.572,0Z" style="fill:#fff;"/><path d="M117.857,189l0,-11.813l11.786,0l-0,-35.437l-11.786,0l0,35.437l-70.714,0l-0,11.813l70.714,0Zm-70.714,-47.25l-11.786,0l0,35.437l11.786,0l-0,-35.437Zm23.571,23.625l-11.785,-0l-0,11.812l11.785,0l0,-11.812Zm35.357,-0l-11.785,-0l-0,11.812l11.785,0l0,-11.812Zm-11.785,-35.438l-23.572,0l0,23.625l23.572,0l-0,-23.625Zm-70.715,-35.437l0,23.625l-11.785,-0l-0,11.813l11.785,-0l0,11.812l11.786,-0l0,-11.812l23.572,-0l-0,-23.625l-11.786,-0l11.786,-0l-0,-11.813l-0,23.625l11.785,0l0,-35.438l-35.357,0.001l0,11.812l-11.786,0Zm129.643,23.625l0,11.813l-11.785,-0l-0,11.812l-11.786,0l-0,-11.812l11.786,-0l-0,-11.813l-11.786,0l-0,11.812l-23.572,0l0,-23.625l11.786,0l-11.786,0l0,-11.812l0,23.625l-11.785,-0l-0,-35.438l35.357,0l-0,11.813l11.786,-0l-0,23.625l11.785,0Zm-129.643,0l0,11.812l11.786,0l0,-11.812l-11.786,0Zm-11.785,-47.25l-11.786,-0l-0,47.25l11.786,-0l-0,-47.25Zm129.643,-23.625l-0,-23.625l-11.786,0l-0,23.625l11.786,0l-0,23.625l11.785,0l0,47.25l11.786,-0l-0,-47.25l-11.786,-0l0,-23.625l-11.785,-0Zm-117.858,-0l-11.785,-0l-0,23.625l11.785,-0l0,-23.625Zm11.786,-35.437l0,11.812l-11.786,-0l0,23.625l11.786,-0l0,-23.625l23.572,0l-0,-11.812l-23.572,-0Zm94.286,-0l-23.572,-0l0,11.812l23.572,0l-0,-11.812Zm-23.572,-11.813l-47.142,-0l-0,11.812l47.142,0l0,-11.812Z"/></g></g></svg>